# xmcd
#
# Track frame offsets: 
#        150
#        17659
#        39939
#        60578
#        79633
#        97932
#        120589
#        158241
#        171101
#        194708
#        216817
#
# Disc length: 3230 seconds
#
# Revision: 0
# Processed by: cddbd v1.4PL0 Copyright (c) Steve Scherf et al.
# Submitted via: ExactAudioCopy v0.90b3
#
DISCID=860c9c0b
DTITLE=Dave Hole - Working Overtime
DYEAR=1993
DGENRE=Blues
TTITLE0=Nobody Hears Me Crying
TTITLE1=You Got To Reap Everything You Sow
TTITLE2=Stormy Seas
TTITLE3=Mean Old Airplane
TTITLE4=Working Overtime
TTITLE5=Key To The Highway
TTITLE6=Up All Night Thinking
TTITLE7=I Can't Be Satisfied
TTITLE8=Twenty Years
TTITLE9=Crazy Kind Of Woman
TTITLE10=Berwick Road
EXTD=
EXTT0=
EXTT1=
EXTT2=
EXTT3=
EXTT4=
EXTT5=
EXTT6=
EXTT7=
EXTT8=
EXTT9=
EXTT10=
PLAYORDER=
